<?xml version="1.0" standalone="no"?>
<!DOCTYPE svg PUBLIC "-//W3C//DTD SVG 20010904//EN"
 "http://www.w3.org/TR/2001/REC-SVG-20010904/DTD/svg10.dtd">
<svg version="1.0" xmlns="http://www.w3.org/2000/svg"
 width="252.000000pt" height="253.000000pt" viewBox="0 0 252.000000 253.000000"
 preserveAspectRatio="xMidYMid meet">

<g transform="translate(0.000000,253.000000) scale(0.100000,-0.100000)"
fill="#000000" stroke="none">
<path d="M0 1265 l0 -1265 1260 0 1260 0 0 1265 0 1265 -1260 0 -1260 0 0
-1265z m1084 639 c19 -10 43 -33 56 -56 20 -36 21 -43 10 -86 -17 -60 -25 -71
-79 -94 -43 -18 -48 -18 -88 -3 -24 9 -52 29 -63 45 -24 34 -32 96 -11 92 11
-2 12 0 4 10 -18 22 17 83 47 84 14 0 34 5 45 12 27 15 38 15 79 -4z m491 -4
c46 -28 70 -89 54 -138 -19 -61 -23 -66 -74 -90 -46 -23 -49 -23 -91 -7 -83
31 -110 97 -74 178 12 27 27 50 33 52 47 14 68 15 62 3 -3 -7 0 -5 7 5 17 22
43 22 83 -3z m-475 -399 c14 -9 33 -34 43 -54 16 -31 17 -42 6 -74 -23 -74
-26 -78 -76 -95 -63 -22 -113 -11 -146 35 -37 49 -41 80 -16 137 22 51 50 69
84 56 9 -3 14 -2 10 3 -16 27 55 21 95 -8z m447 18 c40 -15 71 -47 84 -87 10
-30 9 -38 -11 -64 -13 -17 -18 -28 -11 -24 15 9 14 -15 -2 -35 -7 -8 -33 -24
-59 -33 -39 -15 -52 -16 -82 -6 -43 14 -83 59 -91 103 -9 48 28 125 63 133 15
3 36 9 47 14 27 12 29 12 62 -1z m-447 -408 c14 -9 33 -34 44 -55 16 -33 17
-43 6 -79 -7 -23 -14 -47 -16 -54 -5 -21 -96 -55 -131 -48 -45 8 -91 50 -104
95 -10 34 -9 44 12 86 13 26 31 51 39 55 67 31 107 31 150 0z m445 19 c24 0
73 -50 85 -86 9 -26 9 -42 2 -58 -6 -11 -12 -32 -14 -46 -4 -34 -87 -74 -135
-65 -75 14 -130 101 -103 165 22 53 49 80 80 80 16 0 32 5 35 11 4 6 14 8 22
5 8 -3 21 -6 28 -6z m-275 -325 c10 -12 10 -15 -4 -15 -9 0 -16 7 -16 15 0 8
2 15 4 15 2 0 9 -7 16 -15z m158 -88 c2 -62 -1 -97 -8 -97 -10 0 -16 72 -11
138 1 19 -4 41 -11 49 -10 13 -9 15 7 12 18 -4 20 -14 23 -102z m150 0 c2 -62
-1 -97 -8 -97 -6 0 -10 33 -10 84 0 46 -3 92 -7 102 -4 12 -2 15 8 12 10 -3
15 -29 17 -101z m-744 57 c17 -7 22 -54 6 -54 -5 0 -10 9 -10 20 0 11 -6 20
-14 20 -8 0 -18 5 -21 10 -7 11 15 13 39 4z m-54 -45 c0 -11 5 -16 13 -13 18
7 69 -42 65 -63 -5 -25 -23 -21 -26 5 -2 14 -14 27 -28 33 -34 12 -34 13 -34
-21 0 -26 4 -30 28 -30 21 0 24 -2 12 -10 -8 -5 -25 -10 -37 -10 -21 0 -22 4
-22 76 0 64 3 73 15 63 8 -6 14 -20 14 -30z m169 -10 c-5 -10 -9 -33 -9 -53 0
-32 -19 -64 -21 -34 0 7 -1 36 -3 63 -4 61 0 68 24 53 14 -9 16 -16 9 -29z
m60 19 c0 -13 -3 -17 -6 -10 -2 6 -11 12 -19 12 -8 0 -14 5 -14 10 0 6 9 10
20 10 14 0 20 -6 19 -22z m122 12 c14 -8 19 -21 19 -55 0 -31 5 -47 17 -54 10
-5 14 -13 10 -17 -4 -5 -17 -3 -27 4 -15 9 -26 9 -44 0 -20 -8 -29 -8 -41 2
-21 17 -19 47 4 60 25 13 54 13 46 0 -4 -6 -14 -9 -23 -8 -11 2 -17 -4 -17
-17 0 -15 7 -20 25 -20 22 0 25 5 28 38 2 26 -2 45 -14 58 -19 21 -13 24 17 9z
m94 0 c3 -5 -1 -10 -9 -10 -9 0 -16 5 -16 10 0 6 4 10 9 10 6 0 13 -4 16 -10z
m49 -63 c1 -41 -3 -66 -9 -64 -5 2 -11 34 -11 71 -1 44 2 66 9 63 6 -2 11 -32
11 -70z m480 57 c36 -36 -3 -80 -51 -58 -14 6 -11 9 15 12 38 4 39 8 10 39
-17 19 -19 23 -5 23 8 0 23 -7 31 -16z m-674 2 c0 -3 -4 -8 -10 -11 -5 -3 -10
-1 -10 4 0 6 5 11 10 11 6 0 10 -2 10 -4z m610 -10 c0 -8 -4 -17 -9 -20 -5 -4
-8 -14 -6 -24 2 -9 4 -20 4 -25 1 -4 16 -16 34 -27 27 -17 29 -20 11 -20 -29
0 -65 30 -66 55 -2 30 11 75 22 75 6 0 10 -6 10 -14z m80 -96 c0 -5 -5 -10
-11 -10 -5 0 -7 5 -4 10 3 6 8 10 11 10 2 0 4 -4 4 -10z"/>
</g>
</svg>
